<?xml version="1.0" encoding="UTF-8"?>
<!-- OV-Shaggy two-stage loader. Wraps the original mascot artwork (mascot-base) and adds three overlay groups: eyes (blink), magnifying glass (Stage 1), and stamp arm + head (Stage 2). Visibility/animation are driven by host CSS via data-stage attribute on the parent .shaggy-loader. SVG must be inlined into the host DOM (not loaded via <object>) so the host stylesheet reaches inner elements. -->
<svg version="1.1" xmlns="http://www.w3.org/2000/svg" viewBox="0 0 1024 1536" width="1024" height="1536">
<g id="mascot-base">
<path d="M0 0 C0.54 0.3 0.54 0.3 3.25 1.81 C11.13 6.41 16.78 11.54 22 19 C22.5 19.5 22.5 19.5 25 22 C26.63 30.37 26.63 30.37 23 34 C23 41 23 41 25.56 45.19 C36.52 63.72 42.43 88.48 42 110 C42 112.13 42.19 114.25 42.38 116.38 C42 121 42 121 36 125 C30.6 130.4 30.9 134.35 29.94 141.88 C26.28 168.72 26.28 168.72 22 173 C20.02 172.67 18.04 172.34 16 172 C10.56 172 7.83 177.76 5 182 C4.34 183.98 3.68 185.96 3 188 C2.01 188.99 1.02 189.98 0 191 C-0.33 191.99 -0.66 192.98 -1 194 C-7 197 -7 197 -14 197 C-16.31 201.19 -16.31 201.19 -18 206 C-18.66 207.65 -19.32 209.3 -20 211 C-19.67 211.33 -19.34 211.66 -19 212 C-19 220.46 -26.2 223.92 -33 228 C-39.61 234.61 -38.84 238.89 -39 248 C-38.67 248.66 -38.34 249.32 -38 250 C-38.01 254.55 -38.13 259.09 -38.26 263.64 C-38 268 -38 268 -35 273 C-30 273.38 -25 273.72 -20 274 C-18.02 275.32 -16.04 276.64 -14 278 C-11.96 278 -9.92 278 -7.81 278 C-0.71 278 3.51 279.28 10 282 C11.88 282.68 13.75 283.36 15.69 284.06 C23.51 286.92 31.27 289.89 39 293 C40.86 293.7 42.71 294.4 44.62 295.12 C46.07 295.74 47.51 296.36 49 297 C49 297.66 49 298.32 49 299 C49.63 299.12 49.63 299.12 52.81 299.75 C67.79 303.36 75.85 311.27 81.69 325.06 C82.14 326.12 82.14 326.12 84.45 331.47 C86.96 337.91 88.99 344.39 91 351 C91.66 351.99 92.32 352.98 93 354 C94.04 356.98 95.03 359.99 96 363 C96.85 365.56 97.71 368.13 98.56 370.69 C102.7 383.1 106.62 395.51 110.25 408.08 C111.73 413.1 113.34 418.04 115 423 C115.33 424.34 115.66 425.68 116 427.06 C117 431 117 431 118.69 435.19 C120 439 120 439 119 444 C114 448 114 448 107 451 C102.07 454.51 101.04 455.89 100.82 462.02 C101.11 464.12 101.39 466.22 101.69 468.38 C102.01 470.85 102.33 473.33 102.66 475.88 C103.1 478.92 103.55 481.96 104 485 C104.27 486.87 104.54 488.73 104.82 490.66 C107.29 507.61 107.29 507.61 108.49 515.42 C111.67 536.51 113.26 557.44 114 578.75 C114.17 583.17 114.33 587.58 114.5 592 C114.59 594.18 114.67 596.37 114.75 598.62 C118.61 698.84 118.61 698.84 126 721 C127.1 737.71 125.44 753.11 120 769 C119.34 769 118.68 769 118 769 C117.34 770.65 116.68 772.3 116 774 C111.6 782.68 108.14 786.08 99 790 C90.25 790.42 90.25 790.42 86 789 C83.69 789.99 81.38 790.98 79 792 C69.56 792.56 69.56 792.56 67 790 C67 783.02 67.68 780.85 70.81 774.94 C71.52 773.59 72.23 772.23 72.96 770.84 C73.63 769.57 74.31 768.31 75 767 C78 761 78 761 76 757 C74.68 755.68 73.36 754.36 72 753 C70.68 753.66 69.36 754.32 68 755 C63.83 757.08 60.47 758.24 56 756 C53.37 749.59 54.09 746.75 56.38 740.12 C59.95 729.37 59.32 718.65 58.99 707.46 C58.64 692.82 61.35 682.65 72 672 C73.65 671.01 75.3 670.02 77 669 C79.65 666.35 78.13 658.36 78 655 C77.01 653.68 76.02 652.36 75 651 C73.97 645.64 73.09 640.34 72.31 634.94 C72.09 633.47 71.86 632.01 71.63 630.5 C70.46 622.58 69.89 615.03 70 607 C69.06 603.32 68.05 599.65 67 596 C64.76 584.16 63.08 572.33 61.62 560.38 C59.48 543.18 56.93 526.08 54 509 C53.7 506.98 53.39 504.95 53.08 502.87 C51.79 497.03 49.85 495.32 45 492 C36.31 499.58 37.87 508.29 37.87 519.21 C37.87 520.57 37.87 521.94 37.86 523.34 C37.86 526.22 37.87 529.09 37.87 531.96 C37.88 536.38 37.87 540.8 37.86 545.21 C37.86 548.01 37.87 550.8 37.87 553.59 C37.87 556.13 37.87 558.68 37.87 561.31 C38 567 38 567 39 568 C40.21 578.77 40 589.48 39.84 600.3 C40 606 40 606 42 613 C47.58 659.42 47.58 659.42 37 670 C32 670 32 670 28 667 C24 669 24 669 21 672 C22.3 672.06 23.6 672.12 24.94 672.19 C26.28 672.46 27.62 672.72 29 673 C30.12 678.61 30.25 683.82 30.39 689.55 C30.46 691.95 30.53 694.35 30.59 696.83 C30.67 699.44 30.74 702.06 30.81 704.75 C32.25 752.78 35.07 800.65 40.6 848.4 C41.02 853.29 41.07 858.1 41 863 C41.66 863 42.32 863 43 863 C43 864.32 43 865.64 43 867 C43.99 867 44.98 867 46 867 C49.57 878.97 50.15 892.2 51.7 904.55 C56.52 942.91 61.77 981.08 69.87 1018.91 C71.3 1025.72 72.35 1032.04 72 1039 C72 1043 72 1043 74 1045 C75.1 1049.5 76.11 1054.03 77.06 1058.56 C77.59 1061.04 78.12 1063.52 78.66 1066.07 C80 1073 80 1073 80.56 1078.09 C81 1082 81 1082 83 1087 C83.66 1089.31 84.32 1091.62 85 1094 C86.98 1096.02 88.98 1098.02 91 1100 C91.99 1102.31 92.98 1104.62 94 1107 C94.66 1107.99 95.32 1108.98 96 1110 C96.48 1124.29 96.48 1124.29 94 1128 C91.69 1128.66 89.38 1129.32 87 1130 C85.35 1131.98 83.7 1133.96 82 1136 C87 1142.25 90.52 1142.8 98.12 1145.06 C133.9 1155.8 133.9 1155.8 140 1168 C140.66 1168.66 141.32 1169.32 142 1170 C143.88 1177.51 144.01 1183.32 140 1190 C109.94 1200.2 69.47 1199.43 39 1191 C37.81 1190.74 37.81 1190.74 31.81 1189.44 C22.74 1187.32 13.85 1184.64 4.94 1181.94 C3.5 1181.5 2.06 1181.07 0.58 1180.62 C-20.33 1174.22 -20.33 1174.22 -23 1164 C-23.4 1155.87 -23.23 1148.81 -21 1141 C-21 1132.8 -22.31 1130.69 -28 1125 C-30.6 1113.56 -25.81 1103.09 -19 1094 C-16.86 1085.45 -18.19 1077.48 -20 1069 C-20 1067.02 -20 1065.04 -20 1063 C-20.66 1060.69 -21.32 1058.38 -22 1056 C-24.16 1045.68 -25.31 1035.53 -26 1025 C-26.31 1023.2 -26.62 1021.4 -26.93 1019.55 C-28.13 1012.22 -28.87 1004.89 -29.5 997.5 C-29.63 996.04 -29.75 994.58 -29.88 993.08 C-30.82 981.96 -31.56 970.83 -32.19 959.69 C-32.23 958.95 -32.23 958.95 -32.44 955.22 C-33.74 930.74 -33.74 930.74 -30 927 C-30.16 921.8 -30.26 919.74 -34 916 C-37.32 906.05 -39.1 896.42 -40 886 C-40.66 884.02 -41.32 882.04 -42 880 C-43.02 874.36 -43.97 868.72 -44.88 863.06 C-45.14 861.42 -45.4 859.78 -45.67 858.1 C-47.76 844.95 -49.53 831.77 -51.14 818.55 C-51.69 814.37 -52.33 810.2 -53.1 806.05 C-54.13 800.29 -54.14 794.84 -54 789 C-53.01 789 -52.02 789 -51 789 C-53.88 762.52 -53.88 762.52 -55.19 753.25 C-56.78 740.98 -56.78 740.98 -52 735 C-53.65 734.34 -55.3 733.68 -57 733 C-57.99 731.02 -58.98 729.04 -60 727 C-60.66 726.67 -61.32 726.34 -62 726 C-62 726.99 -62 727.98 -62 729 C-66.9 730.63 -71.88 730.05 -77 730 C-80 730 -80 730 -82 732 C-82.13 735.02 -82.12 738.04 -82.06 741.06 C-81.97 750.93 -82.16 760.76 -82.5 770.62 C-83.13 790.39 -83.13 790.39 -83.25 798.88 C-83.28 800.4 -83.3 801.92 -83.33 803.49 C-83 807 -83 807 -80 810 C-79.75 816.03 -79.68 821.95 -79.74 827.98 C-79.75 829.77 -79.76 831.56 -79.76 833.4 C-79.79 839.14 -79.83 844.88 -79.88 850.62 C-79.91 856.37 -79.94 862.12 -79.97 867.87 C-79.98 871.45 -80.01 875.03 -80.04 878.61 C-80.11 890.89 -80.11 890.89 -79 892 C-79 897 -79 897 -82 900 C-82.71 914.29 -82.71 914.29 -79 918 C-77.2 929.94 -76.46 941.96 -75.57 954 C-74.8 963.5 -73.75 972.96 -72.68 982.42 C-72.23 986.76 -71.87 991.1 -71.59 995.45 C-70.81 1005.38 -69.47 1015.2 -68.06 1025.06 C-67.76 1027.17 -67.47 1029.28 -67.16 1031.46 C-64.41 1050.28 -60.95 1068.94 -57.2 1087.58 C-56.79 1089.69 -56.37 1091.79 -55.94 1093.96 C-55.57 1095.8 -55.19 1097.65 -54.81 1099.55 C-53.05 1111.41 -54.23 1121.69 -58 1133 C-57.72 1136.01 -57.38 1139.01 -57 1142 C-56.43 1154.29 -56.43 1154.29 -61 1160 C-61.1 1161.84 -61.21 1163.67 -61.31 1165.56 C-63.62 1173.01 -66.71 1172.46 -73.84 1174.12 C-75.21 1174.41 -76.58 1174.7 -78 1175 C-80.32 1175.49 -82.65 1175.99 -85.04 1176.5 C-102.99 1179.93 -120.96 1183.12 -138.99 1186.1 C-143.38 1186.82 -147.78 1187.56 -152.17 1188.29 C-155.01 1188.77 -157.84 1189.24 -160.68 1189.71 C-163.19 1190.12 -165.71 1190.54 -168.3 1190.97 C-193.59 1194.85 -224.51 1196.75 -248 1185 C-251.41 1178.19 -249.07 1168.54 -246 1162 C-238.88 1153.93 -228.06 1150.88 -218 1148 C-216.35 1147.01 -214.7 1146.02 -213 1145 C-209.78 1144.26 -206.56 1143.54 -203.32 1142.88 C-198.16 1141.83 -193.01 1140.72 -187.88 1139.56 C-186.99 1139.37 -186.99 1139.37 -182.49 1138.38 C-178 1137 -178 1137 -174 1133 C-174 1126.39 -176.39 1125.45 -181 1121 C-183.19 1115.54 -183.3 1111.83 -183 1106 C-182.34 1105.34 -181.68 1104.68 -181 1104 C-180.34 1102.02 -179.68 1100.04 -179 1098 C-175.39 1093.5 -171.83 1089.87 -167.32 1086.26 C-161.55 1079.24 -161.8 1073.39 -162.01 1064.71 C-162.01 1063.08 -162.01 1061.45 -162.01 1059.78 C-162.03 1054.41 -162.11 1049.04 -162.2 1043.67 C-162.23 1039.92 -162.25 1036.18 -162.28 1032.43 C-162.33 1024.57 -162.42 1016.7 -162.53 1008.84 C-162.67 998.81 -162.75 988.78 -162.81 978.75 C-162.87 971.01 -162.94 963.26 -163.02 955.51 C-163.06 951.82 -163.09 948.12 -163.12 944.43 C-163.42 909.59 -163.42 909.59 -167.04 894.12 C-168.75 886.78 -169.38 879.3 -170.12 871.81 C-170.21 871 -170.21 871 -170.63 866.87 C-174.35 828.91 -175.05 790.82 -175.07 752.69 C-175.09 745.44 -175.1 738.2 -175.12 730.95 C-175.12 725.97 -175.12 720.99 -175.1 716.01 C-175.08 708.74 -175.1 701.46 -175.13 694.19 C-175.12 691.96 -175.1 689.73 -175.08 687.44 C-175.1 685.38 -175.11 683.32 -175.13 681.2 C-175.13 679.39 -175.13 677.59 -175.13 675.72 C-176.41 668.78 -180.3 665.8 -186 662 C-186.93 652.68 -185.5 649.22 -180 642 C-179 633.74 -178.95 632.05 -185 626 C-185.21 620.31 -185.12 614.92 -184.81 609.25 C-184.67 605.61 -184.54 601.96 -184.41 598.32 C-184.33 596.34 -184.26 594.36 -184.19 592.32 C-183.28 561.65 -183.73 530.91 -184.81 500.25 C-184.88 498.08 -184.95 495.91 -185.02 493.68 C-185.11 491.68 -185.19 489.69 -185.27 487.64 C-185.34 485.89 -185.41 484.15 -185.48 482.34 C-186.29 475.59 -188.74 473.21 -194 469 C-199.67 472.4 -202.41 474.82 -205.38 480.75 C-208.81 487.62 -212.61 492.71 -218.25 497.94 C-222.46 502.5 -222.72 505.1 -224 511 C-227.9 514.46 -231.14 516.06 -236 518 C-237.11 518.83 -238.23 519.65 -239.38 520.5 C-250.14 527.93 -264.88 526.05 -276.38 521.12 C-284.14 516.58 -284.59 512.46 -286 504 C-286.66 504 -287.32 504 -288 504 C-288.66 503.17 -288.66 503.17 -292 499 C-293.32 498.01 -294.64 497.02 -296 496 C-298.37 491.26 -299.96 487.2 -301 482 C-301.66 480.68 -302.32 479.36 -303 478 C-303.66 478 -304.32 478 -305 478 C-304.96 476.45 -304.92 474.91 -304.88 473.31 C-305.02 467.28 -305.7 464.3 -310 460 C-310.34 457.33 -310.68 454.67 -311 452 C-311.99 450.35 -312.98 448.7 -314 447 C-320.78 424.27 -324.77 400.05 -326.38 376.42 C-327.26 370.16 -330.23 367.93 -335 364 C-336.65 363.34 -338.3 362.68 -340 362 C-347.86 355.71 -350 353.98 -350 344 C-353 338 -353 338 -358 334 C-362.11 326.41 -365.35 319.2 -368 311 C-368.87 309.29 -369.73 307.58 -370.62 305.81 C-373 301 -373 301 -374 295 C-374.66 295 -375.32 295 -376 295 C-376.66 292.69 -377.32 290.38 -378 288 C-378.7 286.7 -379.4 285.4 -380.12 284.06 C-382 280 -382 280 -382 272 C-386.18 258.82 -386.18 258.82 -389 256 C-389.36 246.55 -389.36 246.55 -387 243 C-386.39 242.71 -386.39 242.71 -383.31 241.25 C-376.65 237.77 -372.79 233.98 -370 227 C-364.43 224 -360.35 222.91 -354 222 C-352.02 220.35 -350.04 218.7 -348 217 C-338.78 214.37 -329.68 213.2 -321 218 C-318.26 221.89 -316.77 225.57 -315 230 C-314.34 230.66 -313.68 231.32 -313 232 C-313 233.65 -313 235.3 -313 237 C-311.39 239.7 -309.72 242.37 -308 245 C-308 245.66 -308 246.32 -308 247 C-307.34 247 -306.68 247 -306 247 C-304.65 251.33 -303.32 255.66 -302 260 C-300.95 262.39 -299.9 264.79 -298.81 267.25 C-296 274 -296 274 -295.56 279 C-294.78 284.54 -292.74 286.21 -288 289 C-279.11 284.55 -278.63 280.38 -278 271 C-277.34 271 -276.68 271 -276 271 C-275.67 269.68 -275.34 268.36 -275 267 C-273.68 266.34 -272.36 265.68 -271 265 C-270.67 264.34 -270.34 263.68 -270 263 C-261.42 260.08 -252.88 259.27 -245 264 C-245 270.5 -245.9 274.02 -248 280 C-248.33 281.98 -248.66 283.96 -249 286 C-249.66 286 -250.32 286 -251 286 C-254.66 296.98 -257.12 307.25 -258.38 318.75 C-260.15 333.09 -263.7 340.12 -276 348 C-282.36 355.95 -279.88 362.34 -277 371.31 C-274 380.74 -274 380.74 -274 384 C-273.34 384 -272.68 384 -272 384 C-271.98 385.65 -271.96 387.3 -271.94 389 C-270.86 395.9 -269.09 398.34 -264 403 C-260 404 -260 404 -256 400.19 C-250.56 393.13 -248.43 386.51 -246 378 C-243.09 368.84 -239.57 359.92 -236 351 C-235.34 351 -234.68 351 -234 351 C-233.67 349.35 -233.34 347.7 -233 346 C-231.68 343.66 -230.35 341.32 -229 339 C-228.67 337.68 -228.34 336.36 -228 335 C-225.68 327.89 -223.88 323.85 -219 318 C-218.67 316.35 -218.34 314.7 -218 313 C-217.5 312.5 -217.5 312.5 -215 310 C-214.34 308.68 -213.68 307.36 -213 306 C-210.69 305.01 -208.38 304.02 -206 303 C-205.06 302.52 -205.06 302.52 -200.31 300.06 C-194.28 297.14 -188.37 295.05 -182 293 C-179 291.67 -176 290.34 -173 289 C-170.69 288.34 -168.38 287.68 -166 287 C-164.33 286.3 -162.66 285.6 -160.94 284.88 C-149.47 280.12 -137.78 275.93 -126 272 C-117.21 265.41 -115.97 259.27 -114.94 248.69 C-114.1 240.2 -114.1 240.2 -113 238 C-118.8 228.33 -123.87 223.76 -135 222 C-140.47 216.53 -143.15 212.12 -146 205 C-148.27 202.61 -150.6 200.27 -153 198 C-156 195 -156 195 -157 188 C-163.49 179 -163.49 179 -173 179 C-173.99 179.99 -174.98 180.98 -176 182 C-184.31 180.34 -184.55 173.31 -187.12 165.81 C-189 159 -189 159 -189.81 151.62 C-191.09 144.51 -192 141.97 -198 138 C-202.44 138.06 -202.44 138.06 -206 139 C-207.7 133.05 -208.26 129.24 -208.27 123.21 C-208.27 121.52 -208.27 119.84 -208.27 118.11 C-208.27 116.36 -208.26 114.61 -208.25 112.81 C-208.26 111.08 -208.27 109.36 -208.27 107.58 C-208.26 96.97 -207.6 87.05 -204.88 76.75 C-202.48 66.49 -204.94 63.73 -212 57 C-212 52 -212 52 -210 50 C-209.27 47.39 -208.59 44.76 -207.94 42.12 C-205.5 33.59 -201.84 27.78 -196 21 C-194.99 19.76 -193.98 18.53 -192.94 17.25 C-186.92 12.28 -180.03 9.3 -173 6 C-170.33 4.67 -167.66 3.34 -165 2 C-165.89 1.79 -165.89 1.79 -170.38 0.75 C-176 -1 -176 -1 -178 -5 C-177.67 -6.32 -177.34 -7.64 -177 -9 C-168.41 -11.15 -161.17 -10.09 -153 -7 C-145.77 -5.55 -143.06 -9.06 -137 -13 C-133.37 -14.42 -129.7 -15.77 -126 -17 C-123.69 -17.99 -121.38 -18.98 -119 -20 C-80.12 -28.09 -32.37 -25.9 0 0 Z " fill="#141815" transform="translate(592,144)"/>
<path d="M0 0 C25.25 3.42 73.19 18.69 84.88 42.89 C96.67 73.43 107.54 104.26 116.94 135.62 C117.19 136.45 117.19 136.45 118.45 140.65 C122 152.64 122 152.64 122 156 C118.49 157.51 114.91 158.85 111.31 160.12 C97.18 165.25 83.24 170.76 69.81 177.56 C65 180 65 180 63 180 C62.73 152.96 63.38 126.03 64.49 99.02 C65.21 81.35 65.62 63.68 66 46 C65.34 46 64.68 46 64 46 C63.67 48.31 63.34 50.62 63 53 C62.56 54.75 62.11 56.5 61.65 58.3 C54.65 86.72 51.38 115.88 49 145 C48.94 145.68 48.94 145.68 48.66 149.13 C48 157.42 47.43 165.7 47 174 C46.91 175.67 46.82 177.33 46.73 179.05 C45.74 201.21 45.81 223.37 45.81 245.55 C45.81 252.46 45.79 259.36 45.78 266.27 C45.74 297.94 46.99 329.2 49.63 360.76 C49.94 365.17 50 369.59 50 374 C46.07 375.92 46.07 375.92 40.56 377.19 C38.54 377.66 36.53 378.14 34.45 378.63 C32.32 379.08 30.19 379.53 28 380 C26.02 380.44 24.03 380.88 21.99 381.34 C-31.22 392.63 -86.09 393.98 -139.22 381.76 C-147 380 -147 380 -153.37 379.05 C-161.98 377.43 -161.98 377.43 -166 374 C-167.95 365.84 -166.86 358.27 -166 350 C-162.48 293.85 -164.26 236.99 -169 181 C-169.22 178.27 -169.43 175.54 -169.65 172.81 C-176.8 82 -176.8 82 -184 46 C-186.17 61.94 -186.15 78.05 -186.1 94.11 C-186.1 95.92 -186.09 97.74 -186.09 99.61 C-186.09 105.32 -186.08 111.04 -186.06 116.75 C-186.06 120.66 -186.05 124.57 -186.05 128.47 C-186.04 137.98 -186.02 147.49 -186 157 C-190 155 -190 155 -195.75 150.81 C-208.73 141.81 -222.76 137.62 -238 134 C-239.32 133.67 -240.64 133.34 -242 133 C-240.69 125.12 -237.49 118.24 -234.38 110.94 C-229.51 99.42 -224.72 87.87 -220.09 76.26 C-201.68 30.19 -181.39 18.46 -135 3 C-127.35 3 -126.86 7.76 -123 14 C-104.2 35.37 -78.19 40.89 -51.12 36.81 C-29.42 31.29 -10.29 20.57 0 0 Z " fill="#2E7852" transform="translate(581,426)"/>
<path d="M0 0 C1.07 0.6 2.14 1.2 3.25 1.81 C11.13 6.41 16.78 11.54 22 19 C22.99 19.99 23.98 20.98 25 22 C26.63 30.37 26.63 30.37 23 34 C23 41 23 41 25.56 45.19 C36.52 63.72 42.43 88.48 42 110 C42 112.13 42.19 114.25 42.38 116.38 C42 121 42 121 36 125 C30.6 130.4 30.9 134.35 29.94 141.88 C26.28 168.72 26.28 168.72 22 173 C20.02 172.67 18.04 172.34 16 172 C10.56 172 7.83 177.76 5 182 C4.67 182.99 4.67 182.99 3 188 C2.01 188.99 1.02 189.98 0 191 C-0.33 191.99 -0.66 192.98 -1 194 C-7 197 -7 197 -14 197 C-16.31 201.19 -16.31 201.19 -18 206 C-18.66 207.65 -19.32 209.3 -20 211 C-19.67 211.33 -19.34 211.66 -19 212 C-19 220.46 -26.2 223.92 -33 228 C-38.67 233.67 -38.98 236.3 -40 244 C-40.66 242.68 -41.32 241.36 -42 240 C-42.33 239.67 -42.66 239.34 -43 239 C-42.86 243.69 -42.71 248.38 -42.56 253.06 C-42.48 255.67 -42.4 258.28 -42.32 260.97 C-42 268 -42 268 -41 275 C-36.6 277.2 -30.84 276.67 -26 277 C-29.99 292.98 -49.99 301.33 -64 306 C-87.13 309.62 -105.95 304.58 -123 288 C-127 283 -127 283 -128 280 C-124 278 -124 278 -117.81 277.5 C-112 277 -112 277 -111 275 C-110.85 271.5 -110.78 268 -110.75 264.5 C-110.72 262.59 -110.7 260.68 -110.67 258.72 C-111 254 -111 254 -114 252 C-114.46 240.92 -114.46 240.92 -113 238 C-118.8 228.33 -123.87 223.76 -135 222 C-140.47 216.53 -143.15 212.12 -146 205 C-148.27 202.61 -150.6 200.27 -153 198 C-156 195 -156 195 -157 188 C-163.49 179 -163.49 179 -173 179 C-173.99 179.99 -174.98 180.98 -176 182 C-184.31 180.34 -184.55 173.31 -187.12 165.81 C-189 159 -189 159 -189.81 151.62 C-191.09 144.51 -192 141.97 -198 138 C-202.44 138.06 -202.44 138.06 -206 139 C-207.7 133.05 -208.26 129.24 -208.27 123.21 C-208.27 122.37 -208.27 122.37 -208.27 118.11 C-208.27 116.36 -208.26 114.61 -208.25 112.81 C-208.26 111.08 -208.27 109.36 -208.27 107.58 C-208.26 96.97 -207.6 87.05 -204.88 76.75 C-202.48 66.49 -204.94 63.73 -212 57 C-212 52 -212 52 -210 50 C-209.27 47.39 -208.59 44.76 -207.94 42.12 C-205.5 33.59 -201.84 27.78 -196 21 C-194.99 19.76 -193.98 18.53 -192.94 17.25 C-186.92 12.28 -180.03 9.3 -173 6 C-170.33 4.67 -167.66 3.34 -165 2 C-166.77 1.59 -168.55 1.18 -170.38 0.75 C-176 -1 -176 -1 -178 -5 C-177.67 -6.32 -177.34 -7.64 -177 -9 C-168.41 -11.15 -161.17 -10.09 -153 -7 C-145.77 -5.55 -143.06 -9.06 -137 -13 C-133.37 -14.42 -129.7 -15.77 -126 -17 C-123.69 -17.99 -121.38 -18.98 -119 -20 C-80.12 -28.09 -32.37 -25.9 0 0 Z " fill="#191A18" transform="translate(592,144)"/>
<path d="M0 0 C0.05 2.46 0.1 4.93 0.15 7.46 C1.01 48.37 2.29 89.24 6 130 C6.22 132.46 6.45 134.92 6.68 137.46 C12.97 206.29 21.87 274.56 33.29 342.72 C35.16 353.88 37.03 365.04 38.7 376.23 C43.84 409.83 43.84 409.83 53 425 C61.8 441.01 61.8 441.01 57.19 450.88 C55 454 55 454 51 456 C48.33 454.67 45.67 453.33 43 452 C12.18 448.69 -16.62 464.29 -40 483 C-40.99 483 -41.98 483 -43 483 C-45.27 478.47 -44.17 473.68 -43 469 C-42.07 460.51 -45.19 455.46 -49 448 C-51.19 438.99 -48.4 432.96 -43.69 425.2 C-42.87 423.83 -42.04 422.47 -41.19 421.06 C-40.78 420.43 -40.78 420.43 -38.73 417.22 C-34.99 408.09 -38.75 397.82 -40.69 388.5 C-48.27 350.53 -53.09 311.55 -54.63 272.86 C-55.39 254 -58.18 236.14 -62.04 217.68 C-63.66 209.78 -65.15 201.86 -66.62 193.94 C-66.77 193.16 -66.77 193.16 -67.5 189.22 C-70.08 175.1 -72.09 160.93 -73.96 146.71 C-74.58 142.07 -75.27 137.43 -76.05 132.82 C-77.1 126.41 -77.76 120.03 -78.38 113.56 C-79.68 100.52 -81.37 87.59 -83.23 74.62 C-84 69 -84 69 -84 66 C-80.28 65.05 -80.28 65.05 -75.5 64.31 C-73.92 64.06 -72.34 63.81 -70.72 63.55 C-69.49 63.37 -68.26 63.19 -67 63 C-71.71 58.29 -77.69 57.72 -84 56 C-87.24 52.76 -86.13 44.2 -86.13 39.7 C-86.13 38.14 -86.14 36.59 -86.14 34.99 C-86.13 33.39 -86.13 31.78 -86.12 30.12 C-86.13 28.5 -86.13 26.87 -86.14 25.19 C-86.13 13.13 -86.13 13.13 -85 12 C-79.27 11.31 -73.55 10.67 -67.81 10.06 C-50.14 8.18 -32.83 5.68 -15.42 2.04 C-10.2 0.96 -5.35 0 0 0 Z " fill="#1B6C5F" transform="translate(621,819)"/>
<path d="M0 0 C1.26 0.3 1.26 0.3 7.62 1.81 C29.63 6.96 51.07 10.12 73.64 11.57 C79 12 79 12 81 13 C81.48 19.03 81.85 25.02 82.12 31.06 C82.21 32.78 82.3 34.49 82.39 36.25 C82.6 40.5 82.8 44.75 83 49 C76.56 49.1 70.34 48.72 63.94 48 C63.1 47.91 63.1 47.91 58.84 47.44 C57.57 47.29 56.31 47.15 55 47 C56.86 48.2 58.71 49.39 60.62 50.62 C61.8 51.39 62.97 52.15 64.18 52.93 C68 55 68 55 75.81 56.69 C86.08 63.85 83.03 73.69 82.27 85.39 C81.78 93.69 81.67 102 81.5 110.31 C81.45 112.19 81.41 114.07 81.36 116.01 C80.94 135.03 80.89 154.04 80.88 173.06 C80.87 174.58 80.87 176.1 80.87 177.67 C80.83 206.36 81.64 234.93 83.69 263.56 C83.86 265.95 84.03 268.33 84.2 270.79 C85.91 293.61 88.45 316.32 91.27 339.04 C92.04 345.3 92.77 351.57 93.5 357.84 C94.74 368.13 96.19 378.35 97.88 388.56 C98.13 390.14 98.39 391.71 98.65 393.33 C100.14 402.39 101.88 411.35 103.88 420.31 C108.74 442.89 108.74 442.89 102 453 C102 460 102 460 103 463 C103.61 470.59 102.93 475.06 98 481 C92.05 479.51 87.18 476.39 81.81 473.44 C67.21 465.49 52.82 458.23 37 453 C34.79 452.24 32.59 451.47 30.31 450.69 C20.23 448.36 9.8 447.73 -0.38 449.96 C-1.58 449.97 -2.77 449.99 -4 450 C-7.51 441.8 -10.13 433.71 -4.79 425.67 C-0.93 421.46 3.04 417.71 7.64 414.32 C12.58 407.96 11.93 401.71 11.81 393.99 C11.82 392.36 11.82 390.74 11.82 389.07 C11.82 383.67 11.77 378.28 11.71 372.89 C11.69 369.1 11.68 365.3 11.66 361.51 C11.63 353.51 11.57 345.51 11.49 337.52 C11.39 327.45 11.35 317.39 11.33 307.32 C11.22 264.71 9.96 223.1 3.79 180.9 C-1.29 142.79 -1.18 103.94 -1.13 65.56 C-1.12 60.28 -1.13 55 -1.14 49.72 C-1.14 33.12 -1.11 16.57 0 0 Z " fill="#1B6D5F" transform="translate(425,819)"/>
<path d="M0 0 C0.33 0.66 0.33 0.66 2 4 C-7.62 3.12 -7.62 3.12 -11 2 C-9.64 4.1 -8.28 6.21 -6.88 8.38 C8.15 31.6 22.38 59.71 22 88 C9 80.2 9 80.2 9 75 C8.34 75 7.68 75 7 75 C7.08 76.57 7.16 78.13 7.25 79.75 C6.69 93.81 0.96 103.52 -10 112 C-10.99 112.33 -11.98 112.66 -13 113 C-13.27 107.63 -12.87 103.49 -11.5 98.25 C-8.8 86.99 -9.01 79.03 -15 69 C-13.81 68.82 -12.62 68.64 -11.39 68.45 C-9.84 68.2 -8.29 67.95 -6.69 67.69 C-5.14 67.44 -3.6 67.2 -2.01 66.95 C2 66 2 66 5 63 C4.13 63.06 4.13 63.06 -0.25 63.38 C-16.93 62.45 -28.7 50.13 -39 38 C-39.33 37.34 -39.66 36.68 -40 36 C-40 44.25 -40 52.5 -40 61 C-55.84 54.67 -69.11 38.74 -80 26 C-81.13 24.68 -82.27 23.36 -83.44 22 C-84.28 21.01 -85.13 20.02 -86 19 C-85.84 20.81 -85.67 22.62 -85.5 24.48 C-84.97 32.45 -84.89 40.33 -84.94 48.31 C-84.94 49.73 -84.95 51.15 -84.95 52.62 C-84.96 56.08 -84.98 59.54 -85 63 C-106.58 59.4 -135.25 33.51 -145 14 C-145.66 14 -146.32 14 -147 14 C-146.67 14.66 -146.34 15.32 -146 16 C-145.62 19.41 -145.3 22.83 -145 26.25 C-144.83 28.23 -144.65 30.2 -144.48 32.24 C-143.93 38.83 -143.44 45.41 -143 52 C-152.98 46.01 -160.77 38.04 -168 29 C-168.33 28.84 -168.33 28.84 -170 28 C-169.67 36.41 -169.67 36.41 -168 79 C-177.08 74.46 -181.77 64.32 -187 56 C-187.29 70.79 -186.4 85.29 -185 100 C-184.67 103.67 -184.33 107.33 -184 111 C-196.05 106.18 -199.79 92.33 -204 81 C-205.6 84.04 -207.21 87.08 -208.81 90.12 C-209.71 91.82 -210.6 93.51 -211.52 95.26 C-213.38 98.82 -215.2 102.4 -217 106 C-219 109 -219 109 -221 109 C-221.71 75.39 -218.29 45.57 -203 15 C-204.02 15.76 -205.05 16.52 -206.11 17.3 C-207.45 18.29 -208.8 19.29 -210.19 20.31 C-211.52 21.3 -212.86 22.28 -214.23 23.3 C-218 26 -218 26 -223 29 C-219.7 9.19 -203.47 -4.84 -185.94 -12.69 C-179 -16 -179 -16 -178 -20 C-180.29 -20.62 -182.58 -21.24 -184.94 -21.88 C-192 -24 -192 -24 -193 -26 C-183.59 -30.7 -173.14 -25.83 -165 -21 C-163.68 -20.01 -162.36 -19.02 -161 -18 C-160.34 -19.32 -159.68 -20.64 -159 -22 C-113.41 -62.36 -38.58 -36.93 0 0 Z " fill="#686458" transform="translate(609,164)"/>
<path d="M0 0 C1.05 0.82 2.1 1.65 3.19 2.5 C17.86 13.17 35.31 24 54 24 C56.33 21.67 55.81 14.9 56.06 11.94 C56.15 10.92 56.15 10.92 56.6 5.78 C56.73 4.2 56.86 2.62 57 1 C68 8.33 68 8.33 68 11 C66.7 11.43 65.4 11.87 64.06 12.31 C60 14 60 14 59 19 C59.88 18.96 59.88 18.96 64.31 18.75 C73.87 19.11 80.1 21.73 88 27 C88.66 26.84 88.66 26.84 92 26 C92.33 24.68 92.66 23.36 93 22 C94.65 22.33 96.3 22.66 98 23 C104 24 104 24 106 24 C107.72 130.86 107.72 130.86 81 151 C77 153 77 153 74 153 C73.32 151.82 72.64 150.65 71.94 149.44 C68.4 144.09 64.36 141.43 59 138 C59.33 139.63 59.66 141.26 60 142.94 C60.86 148.13 61.17 152.76 61 158 C56.77 158 53.22 150.09 51 147 C49.35 145.35 47.7 143.7 46 142 C45.67 148.27 45.34 154.54 45 161 C40.35 156.35 35 148.88 35 142 C34.34 142 33.68 142 33 142 C32.34 143.65 31.68 145.3 31 147 C28.72 151.03 26.4 155.04 24 159 C23.67 159 23.34 159 23 159 C23 153.39 23 147.78 23 142 C18.35 145.87 14.85 149.44 11 154 C10.67 154 10.34 154 10 154 C10 148.39 10 142.78 10 137 C4.14 140.91 -1.69 145.06 -4 152 C-15.94 150.01 -23.41 142.18 -28.69 131.62 C-39.04 101.98 -39.96 69.1 -41 38 C-40.01 38.66 -40.01 38.66 -35 42 C-33.02 42.33 -31.04 42.66 -29 43 C-28.34 30.79 -27.68 18.58 -27 6 C-16 13 -16 13 -12 16 C-12.58 16.36 -12.58 16.36 -15.5 18.19 C-19 21 -19 21 -19 26 C-13.41 27.4 -11.64 25.09 -7 22 C-3.08 20.69 0.57 20.65 4.69 20.44 C6.24 20.35 7.79 20.27 9.39 20.18 C10.58 20.12 11.77 20.06 13 20 C12 14 12 14 7 12 C4.69 11.67 2.38 11.34 0 11 C0 7.37 0 3.74 0 0 Z " fill="#FAE5BC" transform="translate(478,212)"/>
<path d="M0 0 C12.34 7.05 17.21 27.03 22.33 39.51 C26.07 48.6 29.96 57.63 33.85 66.67 C36 72 36 72 37 77 C33.04 79.73 29.04 82.39 25 85 C17.6 93.58 17.46 101.95 18 113 C19.82 117.83 20.73 120.15 25 123 C24.84 121.85 24.84 121.85 24 116 C23 103.03 26.97 93.42 37 85 C43.36 81.82 45.29 81.88 52 83 C52.1 81.06 52.21 79.12 52.31 77.12 C53.49 64.94 56.25 55.8 66 48 C72 46 72 46 79 46 C82 49 82 49 81 54 C79.77 56.81 78.49 59.6 77.19 62.38 C72.04 73.86 69.09 84.77 68.06 97.31 C66.97 109.56 63.37 116.87 54 125 C52.33 125.7 50.66 126.4 48.94 127.12 C45 130 45 130 44.5 135.88 C49.11 168.01 65.79 198.23 80 227 C87.75 242.76 87.75 242.76 89.01 248.94 C89.34 250.28 89.66 251.62 90 253 C90.99 253 91.98 253 93 253 C95.11 238.23 91.98 225.93 87 212 C102.38 214.2 117.22 224.05 128 235 C130.72 254.06 107.41 281.04 94 293 C84.04 299.94 75.05 304.87 62.94 299.94 C23.85 276.68 14.22 198.56 11 158 C11.09 156.85 11.09 156.85 11.56 151 C11.38 149.02 11.19 147.04 11 145 C6.44 143.44 6.44 143.44 1 143 C-17.95 134.47 -25.58 105.66 -33.12 88 C-33.95 86.08 -34.78 84.15 -35.64 82.17 C-37.29 78.34 -38.93 74.51 -40.57 70.68 C-42.22 66.83 -43.88 62.98 -45.55 59.13 C-46.36 57.27 -47.16 55.42 -47.99 53.5 C-48.72 51.84 -49.44 50.18 -50.18 48.47 C-52.98 41.58 -54.07 37.46 -53 30 C-49 27 -49 27 -42 27 C-39.46 30.21 -39.46 30.21 -37 35 C-35.97 36.98 -34.94 38.97 -33.88 41.01 C-32.78 43.21 -31.69 45.42 -30.56 47.69 C-29.47 49.88 -28.38 52.07 -27.25 54.32 C-26.18 56.53 -25.11 58.73 -24 61 C-23.42 62.16 -23.42 62.16 -20.46 68.02 C-18 74 -18 74 -20 79 C-20.33 80.65 -20.66 82.3 -21 84 C-15.24 85.92 -8.85 81.44 -3.44 79.12 C-2.08 78.56 -0.73 77.99 0.66 77.4 C10.39 73.3 10.39 73.3 13 72 C12.61 52.98 0.04 32.33 -8.02 15.24 C-12.11 6.43 -12.11 6.43 -11 2 C-8 0 -8 0 0 0 Z " fill="#FAE5BA" transform="translate(261,362)"/>
<path d="M0 0 C1.65 0.33 3.3 0.66 5 1 C5.52 5.97 5.69 10.64 5.69 15.62 C5.73 18.85 5.78 22.08 5.83 25.31 C5.84 26.18 5.84 26.18 5.9 30.57 C6.71 75.15 9.52 119.82 14.37 164.14 C14.58 166.07 14.79 168 15.01 169.99 C15.2 171.69 15.39 173.38 15.59 175.13 C16.01 180.11 16.07 185 16 190 C16.66 190 17.32 190 18 190 C18 191.32 18 192.64 18 194 C18.99 194 19.98 194 21 194 C24.57 205.97 25.15 219.2 26.7 231.55 C31.52 269.91 36.77 308.08 44.87 345.91 C46.3 352.72 47.35 359.04 47 366 C47 370 47 370 49 372 C50.1 376.5 51.11 381.03 52.06 385.56 C52.59 388.04 53.12 390.52 53.66 393.07 C55 400 55 400 55.56 405.09 C56 409 56 409 58 414 C58.33 415.15 58.33 415.15 60 421 C61.98 423.02 63.98 425.02 66 427 C66.99 429.31 67.98 431.62 69 434 C69.33 434.49 69.33 434.49 71 437 C71.48 451.29 71.48 451.29 69 455 C66.69 455.66 64.38 456.32 62 457 C60.35 458.98 58.7 460.96 57 463 C62 469.25 65.52 469.8 73.12 472.06 C108.9 482.8 108.9 482.8 115 495 C115.66 495.66 116.32 496.32 117 497 C118.88 504.51 119.01 510.32 115 517 C84.94 527.2 44.47 526.43 14 518 C11.63 517.48 9.26 516.97 6.81 516.44 C-2.26 514.32 -11.15 511.64 -20.06 508.94 C-20.78 508.72 -20.78 508.72 -24.42 507.62 C-45.33 501.22 -45.33 501.22 -48 491 C-48.4 482.87 -48.23 475.81 -46 468 C-46 459.8 -47.31 457.69 -53 452 C-55.6 440.56 -50.81 430.09 -44 421 C-41.86 412.45 -43.19 404.48 -45 396 C-45 394.02 -45 392.04 -45 390 C-45.66 387.69 -46.32 385.38 -47 383 C-49.16 372.68 -50.31 362.53 -51 352 C-51.31 350.2 -51.62 348.4 -51.93 346.55 C-53.13 339.22 -53.87 331.89 -54.5 324.5 C-54.63 323.04 -54.75 321.58 -54.88 320.08 C-55.82 308.96 -56.56 297.83 -57.19 286.69 C-57.27 285.21 -57.36 283.74 -57.44 282.22 C-58.74 257.74 -58.74 257.74 -55 254 C-55.16 248.8 -55.26 246.74 -59 243 C-62.32 233.05 -64.1 223.42 -65 213 C-65.66 211.02 -66.32 209.04 -67 207 C-68.02 201.36 -68.97 195.72 -69.88 190.06 C-70.14 188.42 -70.4 186.78 -70.67 185.1 C-72.76 171.95 -74.53 158.77 -76.14 145.55 C-76.69 141.37 -77.33 137.2 -78.1 133.05 C-79.13 127.29 -79.14 121.84 -79 116 C-78.01 116 -77.02 116 -76 116 C-75.67 113.03 -75.34 110.06 -75 107 C-74.67 107 -74.34 107 -74 107 C-73.83 108.72 -73.66 110.44 -73.48 112.21 C-72.03 126.4 -70.28 140.48 -68.02 154.57 C-67.02 160.85 -66.13 167.14 -65.25 173.44 C-62.93 189.2 -59.96 204.84 -57 220.49 C-56.67 222.22 -56.35 223.95 -56.01 225.74 C-55.33 229.3 -54.62 232.85 -53.89 236.4 C-51.7 247.26 -50.4 257.69 -50.06 268.75 C-48.1 313.87 -42.19 358.81 -33.1 403.04 C-31.33 412.64 -32.57 416.69 -37.38 425 C-44.05 436.59 -47.3 443.54 -40.94 456 C-37.45 463.13 -37.11 467.43 -39 475 C-39.04 478.33 -39.04 481.67 -39 485 C-35.8 483.08 -32.66 481.08 -29.59 478.96 C-8.92 464.74 12.43 453.1 38 452.69 C39.51 452.65 41.01 452.61 42.56 452.57 C47.51 453.05 50.6 454.79 55 457 C60.4 454.3 61.03 451.6 63 446 C62.11 439.8 61.19 436.84 58.38 431.5 C56.9 428.68 55.44 425.84 54 423 C52.84 420.82 51.68 418.65 50.49 416.4 C45.85 406.38 44.46 395.91 42.81 385.06 C42.65 384.08 42.65 384.08 41.85 379.08 C41.21 375.06 40.57 371.04 39.95 367.02 C39.03 361.17 38.07 355.33 37.09 349.49 C26.29 284.96 17.41 220.38 11.06 155.25 C10.92 153.77 10.77 152.3 10.63 150.78 C7.6 119.47 5.68 88.19 4.57 56.75 C4.37 51.25 4.17 45.76 3.97 40.26 C3.84 36.73 3.71 33.2 3.59 29.68 C3.56 28.86 3.56 28.86 3.41 24.74 C3.35 23.21 3.3 21.68 3.24 20.11 C3.19 18.7 3.14 17.29 3.09 15.83 C3.01 12.56 3.07 9.29 3.15 6.02 C3 2 3 2 0 0 Z " fill="#131716" transform="translate(617,817)"/>
<path d="M0 0 C1.88 3.77 1.97 8.25 2.56 12.38 C3.96 22.07 5.43 31.74 6.97 41.41 C12.21 74.34 14.98 106.44 16.18 139.74 C17.61 178.07 19.66 216.49 27.02 254.2 C31.49 277.79 27.82 306.59 9.75 324.12 C6 327 6 327 4 327 C4.99 320.1 7.22 315.27 10.21 309.05 C14.3 299.79 16.38 290.1 17 280 C11.04 282.98 11.09 287.05 9.19 293.31 C0.18 321.41 0.18 321.41 -13 328 C-19 328 -19 328 -21 326 C-20.01 320.08 -18.54 316.96 -15.62 311.81 C-8.59 298.85 -6.86 286.92 -6.81 272.25 C-6.8 270.03 -6.78 267.81 -6.77 265.52 C-7 260 -7 260 -9 257 C-9.66 257 -10.32 257 -11 257 C-12.88 262.65 -14.36 268.37 -15.88 274.12 C-18.78 283.52 -21.44 287.7 -29 294 C-34 294 -34 294 -35 293 C-35.51 287.06 -34.7 282.97 -33.01 277.18 C-30.75 268.96 -30.48 261.24 -30.5 252.75 C-30.55 235.89 -27.33 225.07 -15.06 213.19 C-8.07 203.63 -13.11 188.74 -15 177.75 C-15.31 175.89 -15.62 174.04 -15.94 172.13 C-16.95 166.08 -17.97 160.04 -19 154 C-20.09 147.59 -21.18 141.18 -22.26 134.76 C-22.94 130.69 -23.63 126.62 -24.33 122.56 C-26.91 107.34 -29.09 92.2 -29.25 76.75 C-29.64 66.96 -31.84 58.29 -34.5 48.89 C-40.42 25.68 -40.42 25.68 -38 16 C-34.1 13.85 -30.1 11.88 -26.06 10 C-23.87 8.97 -21.67 7.94 -19.41 6.88 C-4.08 0 -4.08 0 0 0 Z " fill="#FAE6BB" transform="translate(685,604)"/>
<path d="M0 0 C8.4 -0.44 14.24 0.83 22 4 C22.94 4.34 22.94 4.34 27.69 6.06 C35.51 8.92 43.27 11.89 51 15 C52.86 15.7 54.71 16.4 56.62 17.12 C58.07 17.74 59.51 18.36 61 19 C61 19.66 61 20.32 61 21 C62.26 21.25 63.52 21.5 64.81 21.75 C79.79 25.36 87.85 33.27 93.69 47.06 C94.6 49.18 95.51 51.29 96.45 53.47 C98.96 59.91 100.99 66.39 103 73 C103.33 73.5 103.33 73.5 105 76 C106.04 78.98 107.03 81.99 108 85 C108.85 87.56 109.71 90.13 110.56 92.69 C114.7 105.1 118.62 117.51 122.25 130.08 C123.73 135.1 125.34 140.04 127 145 C127.33 146.34 127.66 147.68 128 149.06 C129 153 129 153 130.69 157.19 C132 161 132 161 131 166 C126 170 126 170 119 173 C114.07 176.51 113.04 177.89 112.82 184.02 C113.11 186.12 113.39 188.22 113.69 190.38 C114.01 192.85 114.33 195.33 114.66 197.88 C115.1 200.92 115.55 203.96 116 207 C116.27 208.87 116.54 210.73 116.82 212.66 C119.29 229.61 119.29 229.61 120.49 237.42 C123.67 258.51 125.26 279.44 126 300.75 C126.17 305.17 126.33 309.58 126.5 314 C126.59 316.18 126.67 318.37 126.75 320.62 C130.61 420.84 130.61 420.84 138 443 C139.1 459.71 137.44 475.11 132 491 C131.34 491 130.68 491 130 491 C129.34 492.65 128.68 494.3 128 496 C123.6 504.68 120.14 508.08 111 512 C102.25 512.42 102.25 512.42 98 511 C95.69 511.99 93.38 512.98 91 514 C81.56 514.56 81.56 514.56 79 512 C79 505.02 79.68 502.85 82.81 496.94 C83.52 495.59 84.23 494.23 84.96 492.84 C85.29 492.21 85.29 492.21 87 489 C90 483 90 483 88 479 C87.34 478.34 87.34 478.34 84 475 C82.68 475.66 81.36 476.32 80 477 C75.83 479.08 72.47 480.24 68 478 C65.37 471.59 66.09 468.75 68.38 462.12 C71.95 451.37 71.32 440.65 70.99 429.46 C70.64 414.82 73.35 404.65 84 394 C84.83 393.5 84.83 393.5 89 391 C91.65 388.35 90.13 380.36 90 377 C89.5 376.34 89.5 376.34 87 373 C85.97 367.64 85.09 362.34 84.31 356.94 C84.2 356.21 84.2 356.21 83.63 352.5 C82.46 344.58 81.89 337.03 82 329 C81.06 325.32 80.05 321.65 79 318 C76.76 306.16 75.08 294.33 73.62 282.38 C71.48 265.18 68.93 248.08 66 231 C65.7 228.98 65.39 226.95 65.08 224.87 C63.79 219.03 61.85 217.32 57 214 C51.54 218.63 50.21 222.02 49 229 C48.34 229.99 47.68 230.98 47 232 C36.01 188.04 49.67 126.48 57.5 82.31 C57.78 80.7 58.07 79.08 58.36 77.42 C60.07 68.09 62.06 59.02 65 50 C65.66 50 66.32 50 67 50 C67.25 74.43 66.79 98.77 65.79 123.18 C64.96 143.45 64.42 163.72 64 184 C65.45 183.27 66.89 182.55 68.38 181.8 C80.7 175.72 93.07 170.2 105.88 165.25 C107.23 164.73 108.58 164.2 109.98 163.66 C119.59 160 119.59 160 123 160 C115.09 132.71 106.89 105.64 97 79 C96.5 77.65 96.01 76.3 95.49 74.91 C78.89 29.92 55.05 22.62 11.05 7.09 C6 5 6 5 5 2 C3.35 1.67 1.7 1.34 0 1 C0 0.67 0 0.34 0 0 Z M86.57 188.54 C81 191 81 191 76.21 192.68 C72.06 194.31 72.06 194.31 66 199 C65.1 205.98 66.44 212.19 68 219 C68.45 221.41 68.91 223.83 69.38 226.31 C70.49 230.9 71.72 235.46 73.04 239.99 C75.09 247.64 75.64 254.95 75.94 262.88 C77.44 292.68 83.49 322 88.61 351.35 C89.03 353.77 89.46 356.2 89.89 358.69 C90.08 359.78 90.08 359.78 91.05 365.29 C95.19 390.11 95.19 390.11 86 399 C75.35 411.45 74.47 423.04 74.51 438.84 C74.41 448.57 72.72 456.66 70 466 C69.51 474.51 69.51 474.51 71 476 C77.72 476 79.36 473.71 84 469 C87.42 463.07 89.13 457.27 90.69 450.62 C92.93 441.14 92.93 441.14 94 439 C97 440 97 440 98 442 C98.84 463.29 97.23 479.22 87 498 C84 504 84 504 85 509 C86 510 86 510 92 510 C107.11 499.93 111.87 484.6 116.54 467.82 C118 464 118 464 122 462 C120.37 477.59 116.05 489.91 109 504 C109 505.65 109 507.3 109 509 C124.59 502.77 129.27 482.78 133 468 C134.75 455.73 133.66 444.77 131.25 432.69 C128.84 419.79 127.04 406.93 125.75 393.88 C125.6 392.37 125.45 390.86 125.29 389.31 C123.27 367.78 122.1 346.19 121.29 324.58 C121.23 323.12 121.18 321.66 121.12 320.16 C120.9 314.22 120.67 308.28 120.47 302.34 C119.79 282.32 118.16 262.81 115 243 C114.65 240.76 114.3 238.51 113.94 236.2 C112.92 229.71 111.87 223.23 110.81 216.75 C110.11 212.43 109.41 208.11 108.71 203.8 C108.4 201.93 108.1 200.07 107.78 198.15 C107.27 194.76 106.82 191.36 106.46 187.95 C106 184 106 184 105 182 C98.59 182 92.33 185.97 86.57 188.54 Z " fill="#141714" transform="translate(580,422)"/>
<path d="M0 0 C0 0.66 0 1.32 0 2 C-3.87 2.84 -7.78 3.54 -11.69 4.19 C-21.71 5.9 -31.7 7.7 -41.68 9.65 C-66.02 14.38 -89.95 18.31 -114.81 18.44 C-116.37 18.45 -117.92 18.46 -119.52 18.47 C-133.99 18.36 -148.57 16.71 -162 11 C-163 6 -163 6 -162 4 C-161.34 4 -160.68 4 -160 4 C-159.34 2.68 -158.68 1.36 -158 0 C-143.93 -14.63 -119.63 -20.3 -100.25 -23.69 C-94 -25 -94 -25 -88 -30 C-62.33 -38.56 -20.53 -13.3 0 0 Z " fill="#40433E" transform="translate(512,1308)"/>
<path d="M0 0 C3.29 1.04 6.61 1.99 9.94 2.88 C26.9 7.47 47.56 13.12 56 30 C56 32.31 56 34.62 56 37 C51.25 38.75 51.25 38.75 44 40 C42.71 40.28 41.42 40.55 40.09 40.84 C16.48 45.33 -10.53 45.14 -34 40 C-34.79 39.84 -34.79 39.84 -38.77 39.04 C-54.85 35.53 -70.4 30.19 -86 25 C-78.19 1.56 -18.89 -12 0 0 Z " fill="#41433E" transform="translate(674,1287)"/>
<path d="M0 0 C0.06 2.01 0.12 4.02 0.18 6.1 C0.27 8.73 0.35 11.35 0.44 14.06 C0.52 16.67 0.6 19.28 0.68 21.97 C1 29 1 29 2 36 C6.4 38.2 12.16 37.67 17 38 C13.01 53.98 -6.99 62.33 -21 67 C-44.13 70.62 -62.95 65.58 -80 49 C-84 44 -84 44 -85 41 C-81 39 -81 39 -74.81 38.5 C-69 38 -69 38 -68 36 C-67.9 32.36 -67.87 28.71 -67.88 25.06 C-67.87 23.07 -67.87 21.08 -67.87 19.04 C-67.99 13.31 -68.41 7.69 -69 2 C-66.33 4.67 -63.67 7.33 -61 10 C-56 10 -56 10 -53 7 C-52.67 5.68 -52.34 4.36 -52 3 C-51.34 3 -50.68 3 -50 3 C-49.05 4.96 -48.1 6.92 -47.12 8.94 C-44 15 -44 15 -40 16 C-37 11 -37 11 -36 6 C-33 10 -33 10 -31 14 C-30.17 14.17 -30.17 14.17 -26 15 C-22 9 -22 9 -20 2 C-18 4 -16 6 -14 8 C-6.26 8 -6.11 0 0 0 Z " fill="#FBE6BB" transform="translate(549,383)"/>
<path d="M0 0 C0.66 0.66 1.32 1.32 2 2 C1 3 1 3 -4 3.81 C-4.82 4.01 -4.82 4.01 -9 5 C-10.59 11.35 -6.93 16.31 -4.25 22 C15.24 64.42 15.24 64.42 15 75 C10.31 78.06 10.31 78.06 3 81 C1.31 81.73 -0.37 82.46 -2.11 83.21 C-16.43 89.29 -16.43 89.29 -21 87 C-20 82 -20 82 -18 77 C-19.45 72.96 -19.45 72.96 -21.82 68.23 C-22.67 66.51 -23.51 64.8 -24.38 63.04 C-25.29 61.25 -26.19 59.47 -27.12 57.62 C-28.01 55.85 -28.89 54.07 -29.8 52.23 C-32.17 47.47 -34.55 42.72 -37 38 C-37.65 36.68 -38.29 35.36 -38.96 33.99 C-42.12 29.36 -45.69 30.07 -51 30 C-49 27 -49 27 -47 27 C-46.34 25.68 -45.68 24.36 -45 23 C-43.99 22.03 -42.98 21.06 -41.94 20.06 C-39 17 -39 17 -38 12 C-32.45 8.97 -28.33 7.9 -22 7 C-20.02 5.35 -18.04 3.7 -16 2 C-10 0.28 -6.1 -0.36 0 0 Z " fill="#181816" transform="translate(260,359)"/>
<path d="M0 0 C1.07 0.6 2.14 1.2 3.25 1.81 C11.13 6.41 16.78 11.54 22 19 C22.99 19.99 23.98 20.98 25 22 C26.63 30.37 26.63 30.37 23 34 C23 41 23 41 25.56 45.19 C36.15 63.09 43.41 89.04 42 110 C41.01 110.33 40.02 110.66 39 111 C38.94 109.25 38.88 107.49 38.81 105.69 C35.81 77.26 23.94 46.42 6 24 C6 23.34 6 22.68 6 22 C9.96 22.33 13.92 22.66 18 23 C-7.41 -10.63 -57.96 -23.44 -97.82 -19.53 C-111.9 -17.51 -136.95 -12.11 -144 2 C-147.19 0.41 -150.3 -1.33 -153.38 -3.12 C-160.8 -6.35 -165.99 -6.55 -174 -6 C-174.17 -5.84 -174.17 -5.84 -175 -5 C-172.71 -4.38 -170.42 -3.76 -168.06 -3.12 C-161 -1 -161 -1 -160 1 C-162.58 6.15 -164.7 6.48 -169.94 8.69 C-186.66 16.3 -197.57 28.24 -205 45 C-205 45.99 -205 46.98 -205 48 C-203 46.43 -201 44.87 -198.94 43.25 C-194.46 39.74 -190 36.72 -185 34 C-187 40 -187 40 -189.75 45.69 C-200.8 69.54 -203.42 95.04 -205 121 C-205.33 121 -205.66 121 -206 121 C-206.33 124.3 -206.66 127.6 -207 131 C-207.33 131 -207.66 131 -208 131 C-208.05 124.92 -208.09 118.83 -208.12 112.75 C-208.14 111.04 -208.16 109.33 -208.18 107.56 C-208.22 96.94 -207.61 87.07 -204.88 76.75 C-202.48 66.49 -204.94 63.73 -212 57 C-212 52 -212 52 -210 50 C-209.27 47.39 -208.59 44.76 -207.94 42.12 C-205.5 33.59 -201.84 27.78 -196 21 C-194.99 19.76 -193.98 18.53 -192.94 17.25 C-186.92 12.28 -180.03 9.3 -173 6 C-170.33 4.67 -167.66 3.34 -165 2 C-166.77 1.59 -168.55 1.18 -170.38 0.75 C-176 -1 -176 -1 -178 -5 C-177.67 -6.32 -177.34 -7.64 -177 -9 C-168.41 -11.15 -161.17 -10.09 -153 -7 C-145.77 -5.55 -143.06 -9.06 -137 -13 C-133.37 -14.42 -129.7 -15.77 -126 -17 C-123.69 -17.99 -121.38 -18.98 -119 -20 C-80.12 -28.09 -32.37 -25.9 0 0 Z " fill="#10110E" transform="translate(592,144)"/>
<path d="M0 0 C-15.98 39.94 -71.39 54.36 -109 61 C-116.37 61.75 -123.59 62.11 -131 62 C-127.11 58.11 -123.93 57.69 -118.61 56.3 C-107.52 53.25 -96.93 49.37 -86.25 45.12 C-84.53 44.46 -82.81 43.79 -81.04 43.1 C-55.13 32.9 -31.19 20.03 -8.38 4.06 C-2.57 0 -2.57 0 0 0 Z " fill="#141C16" transform="translate(602,726)"/>
<path d="M0 0 C5.11 6.8 8.29 14.79 11.81 22.5 C15.71 30.96 19.63 39.39 23.88 47.69 C27 54 27 54 27 57 C23.57 58.61 23.57 58.61 19.12 60.19 C17.66 60.72 16.2 61.25 14.7 61.79 C11 63 11 63 9 63 C7.5 59.66 6.1 56.28 4.75 52.88 C1.75 45.46 -1.36 38.14 -4.84 30.94 C-5.49 29.6 -6.14 28.26 -6.8 26.88 C-8.09 24.24 -9.39 21.6 -10.7 18.98 C-15.22 9.66 -15.22 9.66 -13 3 C-8.1 -0.68 -6 -0.9 0 0 Z " fill="#F8E6BF" transform="translate(240,372)"/>
<path d="M0 0 C4.69 1.88 4.69 1.88 8.69 6.88 C8.69 8.52 8.69 10.18 8.69 11.88 C6.38 11.55 4.07 11.21 1.69 10.88 C-1.35 13.5 -4.34 16.17 -7.31 18.88 C-27.82 29.36 -58.81 31.8 -79.38 20.56 C-84.31 17.88 -84.31 17.88 -91.31 19.88 C-92.31 14.88 -92.31 14.88 -88.31 8.88 C-85.31 6.88 -85.31 6.88 -81.31 7.88 C-79.99 9.52 -78.67 11.18 -77.31 12.88 C-60.25 23.73 -32.39 20.66 -14.19 14 C-10.31 11.88 -10.31 11.88 -5.31 6.88 C-5.31 4.56 -5.31 2.25 -5.31 -0.12 C-4.31 -1.12 -4.31 -1.12 0 0 Z " fill="#191815" transform="translate(558.3125,300.125)"/>
<path d="M0 0 C21.79 -0.92 59.14 7.71 72 27 C71.67 28.32 71.34 29.64 71 31 C64.06 31 60.49 29.3 54.19 26.44 C51.99 25.45 49.79 24.45 47.52 23.43 C45.01 22.29 42.51 21.15 40 20 C37.09 18.68 34.17 17.36 31.26 16.04 C25.51 13.43 19.77 10.81 14.02 8.19 C9.37 6.08 4.7 4.01 0 2 C0 1.34 0 0.68 0 0 Z " fill="#131B19" transform="translate(447,1236)"/>
<path d="M0 0 C0 8.78 -2.05 15.08 -4.79 23.32 C-6 28 -6 28 -5 34 C5.22 38.38 14.04 36.93 25 36 C25.16 36.66 25.16 36.66 26 40 C16.71 46.97 1.68 46.94 -9 43 C-17.08 36.26 -17.08 36.26 -16.86 30.25 C-15.93 25.65 -14.42 22.21 -12.25 18.06 C-11.53 16.68 -10.81 15.3 -10.07 13.88 C-2.65 0 -2.65 0 0 0 Z " fill="#191917" transform="translate(510,262)"/>
<path d="M0 0 C4.62 0 9.24 0 14 0 C14 13.2 14 26.4 14 40 C7 40 7 40 2 39 C-0.15 26.1 -0.12 13.05 0 0 Z " fill="#1D6A5C" transform="translate(514,832)"/>
<path d="M0 0 C1.65 1.65 3.3 3.3 5 5 C13.33 12.73 13.33 12.73 17.73 14.48 C22.97 18.52 21.9 22.89 21.94 29.25 C21.97 31.44 22 33.63 22.03 35.89 C22.02 37.58 22.01 39.26 22 41 C10.58 38.52 5.47 32.7 1 22 C-0.24 14.55 -0.06 7.56 0 0 Z " fill="#F6E6C1" transform="translate(407,272)"/>
<path d="M0 0 C20.18 0.26 41.9 8.74 59 19 C59 19.99 59 20.98 59 22 C49.56 26.72 38.04 20.78 29 17 C27.46 16.39 25.93 15.77 24.34 15.14 C15.29 11.47 7.06 7.61 -1 2 C-0.67 1.34 -0.34 0.68 0 0 Z " fill="#131A19" transform="translate(604,1235)"/>
<path d="M0 0 C0.74 16.57 -1.73 30.48 -16 40 C-16.83 40.17 -16.83 40.17 -21 41 C-21.08 37.31 -21.08 33.63 -21.06 29.94 C-21.07 27.88 -21.09 25.83 -21.1 23.71 C-19.68 16.35 -17.14 15.02 -11 11 C-9.11 9.07 -7.27 7.1 -5.5 5.06 C-1 0 -1 0 0 0 Z " fill="#F5E5C1" transform="translate(615,272)"/>
<path d="M0 0 C5.8 7.25 5.43 11.72 5 21 C1 27 1 27 -6 28 C-12.96 22.43 -13.59 17.54 -13 9 C-8.5 0 -8.5 0 0 0 Z " fill="#1B1A18" transform="translate(549,246)"/>
<path d="M0 0 C5.94 7.42 5.34 11.35 5 21 C2 26 2 26 -1 28 C-8 27 -8 27 -12 21 C-13.3 0 -13.3 0 0 0 Z " fill="#191A18" transform="translate(487,245)"/>
<path d="M0 0 C3 0 3 0 5 2 C5.33 2 5.66 2 6 2 C6 4.64 6 7.28 6 10 C6.33 10.66 6.66 11.32 7 12 C7.48 26.03 7.48 26.03 4 33 C0.56 27.84 1.89 21.4 2 15.38 C2.09 10.57 2.09 5.81 2 1 C1.34 0.67 0.68 0.34 0 0 Z " fill="#090A08" transform="translate(547,382)"/>
<path d="M0 0 C2 4 2 4 1 8 C1.33 8 1.66 8 2 8 C2.13 15.57 1.61 23.02 1 30.56 C0.81 32.89 0.63 35.23 0.44 37.63 C0.29 39.4 0.15 41.17 0 43 C-0.33 43 -0.66 43 -1 43 C-1.33 46.3 -1.66 49.6 -2 53 C-2.33 53 -2.66 53 -3 53 C-3.08 46.98 -3.14 40.96 -3.19 34.94 C-3.2 34.09 -3.2 34.09 -3.26 29.83 C-3.32 19.43 -2.41 10.12 0 0 Z " fill="#080806" transform="translate(387,222)"/>
<path d="M0 0 C0.99 0.33 1.98 0.66 3 1 C3.34 4.69 3.34 4.69 3.29 9.63 C3.28 11.39 3.27 13.14 3.26 14.95 C3.24 16.8 3.21 18.65 3.19 20.56 C3.17 22.42 3.16 24.27 3.15 26.19 C3.11 30.79 3.06 35.4 3 40 C2.67 40 2.34 40 2 40 C1.67 46.27 1.34 52.54 1 59 C0.67 59 0.34 59 0 59 C0 39.53 0 20.06 0 0 Z " fill="#040A04" transform="translate(626,650)"/>
</g>
<g id="mascot-eyes">
  <circle cx="490" cy="270" r="11" fill="#141815"/>
  <circle cx="560" cy="270" r="11" fill="#141815"/>
</g>
<g id="mascot-stamp" opacity="1">
  <g id="stamp-arm-rotator" style="transform-origin: 750px 1000px;">
    <rect x="720" y="1000" width="60" height="160" rx="10" fill="#1B6C5F"/>
    <rect x="680" y="1140" width="140" height="60" rx="12" fill="#0F6E56"/>
  </g>
</g>
</svg>
